<?xml version="1.0" encoding="utf-8"?>
<svg baseProfile="tiny" height="159" version="1.2" width="318" xmlns="http://www.w3.org/2000/svg"
    xmlns:ev="http://www.w3.org/2001/xml-events" xmlns:xlink="http://www.w3.org/1999/xlink">
    <defs />
    <rect fill="white" height="100%" width="100%" x="0" y="0" />
    <path
        d="M 156,13 L 155,14 L 149,14 L 148,15 L 145,15 L 144,16 L 142,16 L 141,17 L 139,17 L 138,18 L 136,18 L 135,19 L 134,19 L 133,20 L 132,20 L 131,21 L 130,21 L 129,22 L 128,22 L 127,23 L 126,23 L 124,25 L 123,25 L 119,29 L 118,29 L 112,35 L 112,36 L 108,40 L 108,41 L 106,43 L 106,44 L 105,45 L 105,46 L 103,48 L 103,50 L 102,51 L 102,52 L 101,53 L 101,54 L 100,55 L 100,57 L 99,58 L 99,60 L 98,61 L 98,64 L 97,65 L 97,70 L 96,71 L 96,88 L 97,89 L 97,93 L 98,94 L 98,97 L 99,98 L 99,100 L 100,101 L 100,103 L 101,104 L 101,105 L 102,106 L 102,107 L 103,108 L 103,110 L 105,112 L 105,113 L 106,114 L 106,115 L 108,117 L 108,118 L 112,122 L 112,123 L 118,129 L 119,129 L 123,133 L 124,133 L 126,135 L 127,135 L 128,136 L 129,136 L 130,137 L 131,137 L 132,138 L 133,138 L 134,139 L 135,139 L 136,140 L 138,140 L 139,141 L 141,141 L 142,142 L 144,142 L 145,143 L 148,143 L 149,144 L 155,144 L 156,145 L 168,145 L 169,144 L 175,144 L 176,143 L 180,143 L 181,142 L 183,142 L 184,141 L 186,141 L 187,140 L 189,140 L 190,139 L 191,139 L 192,138 L 193,138 L 194,137 L 195,137 L 196,136 L 197,136 L 199,134 L 200,134 L 203,131 L 204,131 L 210,125 L 210,124 L 214,120 L 214,119 L 215,118 L 215,117 L 217,115 L 217,113 L 219,111 L 219,109 L 220,108 L 220,107 L 221,106 L 221,104 L 222,103 L 222,100 L 223,99 L 223,96 L 224,95 L 224,89 L 225,88 L 225,74 L 224,73 L 224,67 L 162,67 L 162,92 L 196,92 L 197,93 L 197,96 L 196,97 L 196,99 L 194,101 L 194,102 L 193,103 L 193,104 L 184,113 L 183,113 L 182,114 L 181,114 L 179,116 L 177,116 L 176,117 L 174,117 L 173,118 L 170,118 L 169,119 L 155,119 L 154,118 L 151,118 L 150,117 L 148,117 L 147,116 L 146,116 L 144,114 L 143,114 L 142,113 L 141,113 L 138,110 L 137,110 L 132,105 L 132,104 L 129,101 L 129,100 L 127,98 L 127,97 L 126,96 L 126,95 L 125,94 L 125,92 L 124,91 L 124,89 L 123,88 L 123,82 L 122,81 L 122,78 L 123,77 L 123,70 L 124,69 L 124,67 L 125,66 L 125,64 L 126,63 L 126,62 L 127,61 L 127,60 L 129,58 L 129,57 L 132,54 L 132,53 L 137,48 L 138,48 L 141,45 L 142,45 L 143,44 L 144,44 L 146,42 L 147,42 L 148,41 L 150,41 L 151,40 L 155,40 L 156,39 L 168,39 L 169,40 L 172,40 L 173,41 L 175,41 L 176,42 L 177,42 L 178,43 L 179,43 L 180,44 L 181,44 L 184,47 L 185,47 L 186,48 L 189,48 L 205,32 L 205,29 L 204,28 L 203,28 L 200,25 L 199,25 L 197,23 L 196,23 L 194,21 L 193,21 L 192,20 L 190,20 L 189,19 L 188,19 L 187,18 L 186,18 L 185,17 L 183,17 L 182,16 L 180,16 L 179,15 L 176,15 L 175,14 L 168,14 L 167,13 Z"
        fill="black" stroke="black" stroke-width="1" />
</svg>