<?xml version="1.0" encoding="utf-8" ?>
<svg baseProfile="tiny" height="192" version="1.2" width="204" xmlns="http://www.w3.org/2000/svg" xmlns:ev="http://www.w3.org/2001/xml-events" xmlns:xlink="http://www.w3.org/1999/xlink"><defs /><rect fill="white" height="100%" width="100%" x="0" y="0" /><path d="M 47,14 L 41,20 L 41,21 L 39,23 L 39,24 L 38,25 L 38,26 L 37,27 L 37,29 L 36,30 L 36,31 L 35,32 L 35,34 L 34,35 L 34,37 L 33,38 L 33,40 L 32,41 L 32,44 L 31,45 L 31,48 L 30,49 L 30,52 L 29,53 L 29,56 L 28,57 L 28,60 L 27,61 L 27,65 L 26,66 L 26,71 L 25,72 L 25,77 L 24,78 L 24,83 L 23,84 L 23,91 L 22,92 L 22,99 L 21,100 L 21,110 L 20,111 L 20,121 L 19,122 L 19,134 L 18,135 L 18,153 L 17,154 L 17,189 L 16,190 L 0,190 L 17,190 L 17,154 L 18,153 L 18,135 L 19,134 L 19,122 L 20,121 L 20,111 L 21,110 L 21,100 L 22,99 L 22,92 L 23,91 L 23,84 L 24,83 L 24,78 L 25,77 L 25,72 L 26,71 L 26,66 L 27,65 L 27,61 L 28,60 L 28,57 L 29,56 L 29,53 L 30,52 L 30,49 L 31,48 L 31,45 L 32,44 L 32,41 L 33,40 L 33,38 L 34,37 L 34,35 L 35,34 L 35,32 L 37,30 L 37,28 L 38,27 L 38,26 L 39,25 L 39,24 L 41,22 L 41,21 L 48,14 L 53,14 L 55,16 L 56,16 L 58,18 L 58,19 L 61,22 L 61,23 L 63,25 L 63,26 L 64,27 L 64,28 L 65,29 L 65,31 L 66,32 L 66,33 L 67,34 L 67,35 L 68,36 L 68,39 L 69,40 L 69,42 L 70,43 L 70,45 L 71,46 L 71,49 L 72,50 L 72,53 L 73,54 L 73,57 L 74,58 L 74,61 L 75,62 L 75,66 L 76,67 L 76,72 L 77,73 L 77,78 L 78,79 L 78,85 L 79,86 L 79,93 L 80,94 L 80,102 L 81,103 L 81,112 L 82,113 L 82,124 L 83,125 L 83,141 L 84,142 L 84,175 L 86,177 L 111,177 L 111,165 L 112,164 L 112,136 L 113,135 L 113,119 L 114,118 L 114,107 L 115,106 L 115,98 L 116,97 L 116,90 L 117,89 L 117,83 L 118,82 L 118,76 L 119,75 L 119,71 L 120,70 L 120,66 L 121,65 L 121,61 L 122,60 L 122,56 L 123,55 L 123,52 L 124,51 L 124,48 L 125,47 L 125,45 L 126,44 L 126,41 L 127,40 L 127,38 L 128,37 L 128,35 L 129,34 L 129,33 L 130,32 L 130,30 L 132,28 L 132,27 L 133,26 L 133,25 L 134,24 L 134,23 L 136,21 L 136,20 L 141,15 L 142,15 L 143,14 L 148,14 L 155,21 L 155,22 L 156,23 L 156,24 L 158,26 L 158,28 L 159,29 L 159,30 L 160,31 L 160,32 L 161,33 L 161,35 L 162,36 L 162,38 L 163,39 L 163,41 L 164,42 L 164,44 L 165,45 L 165,48 L 166,49 L 166,52 L 167,53 L 167,56 L 168,57 L 168,61 L 169,62 L 169,66 L 170,67 L 170,72 L 171,73 L 171,78 L 172,79 L 172,85 L 173,86 L 173,92 L 174,93 L 174,101 L 175,102 L 175,110 L 176,111 L 176,121 L 177,122 L 177,134 L 178,135 L 178,153 L 179,154 L 179,190 L 203,190 L 180,190 L 179,189 L 179,154 L 178,153 L 178,135 L 177,134 L 177,122 L 176,121 L 176,111 L 175,110 L 175,102 L 174,101 L 174,93 L 173,92 L 173,86 L 172,85 L 172,79 L 171,78 L 171,73 L 170,72 L 170,67 L 169,66 L 169,62 L 168,61 L 168,57 L 167,56 L 167,53 L 166,52 L 166,49 L 165,48 L 165,45 L 164,44 L 164,42 L 163,41 L 163,39 L 162,38 L 162,36 L 161,35 L 161,32 L 159,30 L 159,28 L 158,27 L 158,25 L 156,23 L 156,22 L 155,21 L 155,20 L 150,15 L 149,15 L 148,14 L 142,14 L 141,15 L 140,15 L 136,19 L 136,20 L 134,22 L 134,23 L 133,24 L 133,25 L 132,26 L 132,27 L 131,28 L 131,29 L 130,30 L 130,32 L 129,33 L 129,34 L 128,35 L 128,37 L 127,38 L 127,40 L 126,41 L 126,44 L 125,45 L 125,47 L 124,48 L 124,51 L 123,52 L 123,55 L 122,56 L 122,60 L 121,61 L 121,65 L 120,66 L 120,70 L 119,71 L 119,75 L 118,76 L 118,82 L 117,83 L 117,89 L 116,90 L 116,97 L 115,98 L 115,106 L 114,107 L 114,118 L 113,119 L 113,135 L 112,136 L 112,164 L 111,165 L 111,176 L 110,177 L 86,177 L 84,175 L 84,142 L 83,141 L 83,125 L 82,124 L 82,113 L 81,112 L 81,103 L 80,102 L 80,94 L 79,93 L 79,86 L 78,85 L 78,79 L 77,78 L 77,73 L 76,72 L 76,67 L 75,66 L 75,62 L 74,61 L 74,58 L 73,57 L 73,54 L 72,53 L 72,50 L 71,49 L 71,46 L 70,45 L 70,43 L 69,42 L 69,40 L 68,39 L 68,36 L 67,35 L 67,34 L 66,33 L 66,31 L 65,30 L 65,28 L 64,27 L 64,26 L 63,25 L 63,24 L 61,22 L 61,21 L 58,18 L 58,17 L 57,16 L 56,16 L 54,14 Z" fill="black" stroke="black" stroke-width="1" /><path d="M 144,0 L 143,1 L 139,1 L 138,2 L 137,2 L 136,3 L 134,3 L 133,4 L 132,4 L 130,6 L 129,6 L 121,14 L 121,15 L 118,18 L 118,19 L 116,21 L 116,22 L 115,23 L 115,24 L 113,26 L 113,27 L 112,28 L 112,29 L 111,30 L 111,31 L 110,32 L 110,33 L 109,34 L 109,35 L 108,36 L 108,38 L 107,39 L 107,40 L 106,41 L 106,42 L 105,43 L 105,46 L 104,47 L 104,48 L 103,49 L 103,51 L 102,52 L 102,54 L 101,55 L 101,57 L 100,58 L 100,60 L 99,61 L 99,64 L 99,61 L 100,60 L 100,58 L 101,57 L 101,55 L 102,54 L 102,52 L 103,51 L 103,49 L 104,48 L 104,47 L 105,46 L 105,44 L 106,43 L 106,41 L 108,39 L 108,37 L 109,36 L 109,35 L 110,34 L 110,33 L 111,32 L 111,31 L 112,30 L 112,29 L 113,28 L 113,27 L 115,25 L 115,24 L 116,23 L 116,22 L 118,20 L 118,19 L 121,16 L 121,15 L 130,6 L 131,6 L 133,4 L 134,4 L 135,3 L 136,3 L 137,2 L 138,2 L 139,1 L 143,1 L 144,0 L 146,0 L 147,1 L 151,1 L 152,2 L 153,2 L 154,3 L 155,3 L 156,4 L 157,4 L 159,6 L 160,6 L 167,13 L 167,14 L 170,17 L 170,18 L 173,21 L 173,22 L 174,23 L 174,24 L 176,26 L 176,27 L 177,28 L 177,29 L 178,30 L 178,31 L 179,32 L 179,33 L 180,34 L 180,36 L 182,38 L 182,40 L 183,41 L 183,42 L 184,43 L 184,45 L 185,46 L 185,47 L 186,48 L 186,50 L 187,51 L 187,53 L 188,54 L 188,56 L 189,57 L 189,59 L 190,60 L 190,63 L 191,64 L 191,66 L 192,67 L 192,70 L 193,71 L 193,73 L 194,74 L 194,78 L 195,79 L 195,82 L 196,83 L 196,87 L 197,88 L 197,92 L 198,93 L 198,97 L 199,98 L 199,103 L 200,104 L 200,109 L 201,110 L 201,116 L 202,117 L 202,124 L 203,125 L 203,132 L 203,125 L 202,124 L 202,117 L 201,116 L 201,110 L 200,109 L 200,104 L 199,103 L 199,98 L 198,97 L 198,93 L 197,92 L 197,88 L 196,87 L 196,83 L 195,82 L 195,79 L 194,78 L 194,74 L 193,73 L 193,71 L 192,70 L 192,67 L 191,66 L 191,64 L 190,63 L 190,60 L 189,59 L 189,57 L 188,56 L 188,54 L 187,53 L 187,51 L 186,50 L 186,48 L 185,47 L 185,46 L 184,45 L 184,43 L 183,42 L 183,41 L 182,40 L 182,38 L 181,37 L 181,36 L 180,35 L 180,33 L 179,32 L 179,31 L 178,30 L 178,29 L 177,28 L 177,27 L 176,26 L 176,25 L 174,23 L 174,22 L 173,21 L 173,20 L 170,17 L 170,16 L 167,13 L 167,12 L 161,6 L 160,6 L 158,4 L 157,4 L 156,3 L 155,3 L 154,2 L 152,2 L 151,1 L 147,1 L 146,0 Z" fill="black" stroke="black" stroke-width="1" /><path d="M 50,0 L 49,1 L 45,1 L 44,2 L 42,2 L 41,3 L 40,3 L 39,4 L 38,4 L 36,6 L 35,6 L 28,13 L 28,14 L 25,17 L 25,18 L 23,20 L 23,21 L 22,22 L 22,23 L 20,25 L 20,26 L 19,27 L 19,28 L 18,29 L 18,30 L 17,31 L 17,32 L 16,33 L 16,34 L 15,35 L 15,37 L 14,38 L 14,39 L 13,40 L 13,42 L 12,43 L 12,44 L 11,45 L 11,47 L 10,48 L 10,50 L 9,51 L 9,53 L 8,54 L 8,56 L 7,57 L 7,59 L 6,60 L 6,62 L 5,63 L 5,66 L 4,67 L 4,70 L 3,71 L 3,74 L 2,75 L 2,78 L 1,79 L 1,82 L 0,83 L 0,86 L 0,83 L 1,82 L 1,79 L 2,78 L 2,75 L 3,74 L 3,71 L 4,70 L 4,67 L 5,66 L 5,63 L 6,62 L 6,60 L 7,59 L 7,57 L 8,56 L 8,54 L 9,53 L 9,51 L 10,50 L 10,48 L 11,47 L 11,45 L 12,44 L 12,43 L 13,42 L 13,41 L 14,40 L 14,39 L 15,38 L 15,36 L 16,35 L 16,34 L 17,33 L 17,32 L 18,31 L 18,30 L 19,29 L 19,28 L 20,27 L 20,26 L 22,24 L 22,23 L 23,22 L 23,21 L 25,19 L 25,18 L 28,15 L 28,14 L 36,6 L 37,6 L 39,4 L 40,4 L 41,3 L 42,3 L 43,2 L 44,2 L 45,1 L 49,1 L 50,0 L 52,0 L 53,1 L 57,1 L 58,2 L 59,2 L 60,3 L 61,3 L 63,5 L 64,5 L 66,7 L 67,7 L 74,14 L 74,15 L 77,18 L 77,19 L 79,21 L 79,22 L 81,24 L 81,25 L 82,26 L 82,27 L 83,28 L 83,29 L 84,30 L 84,31 L 85,32 L 85,33 L 86,34 L 86,35 L 87,36 L 87,37 L 88,38 L 88,39 L 89,40 L 89,41 L 90,42 L 90,43 L 91,44 L 91,46 L 92,47 L 92,49 L 93,50 L 93,51 L 94,52 L 94,54 L 95,55 L 95,58 L 96,59 L 96,61 L 97,62 L 97,65 L 97,62 L 96,61 L 96,59 L 95,58 L 95,55 L 94,54 L 94,52 L 93,51 L 93,50 L 92,49 L 92,47 L 91,46 L 91,44 L 90,43 L 90,42 L 89,41 L 89,40 L 88,39 L 88,38 L 87,37 L 87,35 L 86,34 L 86,33 L 85,32 L 85,31 L 84,30 L 84,29 L 83,28 L 83,27 L 82,26 L 82,25 L 81,24 L 81,23 L 79,21 L 79,20 L 77,18 L 77,17 L 74,14 L 74,13 L 68,7 L 67,7 L 65,5 L 64,5 L 62,3 L 60,3 L 59,2 L 58,2 L 57,1 L 53,1 L 52,0 Z" fill="black" stroke="black" stroke-width="1" /></svg>