<?xml version="1.0" encoding="utf-8" ?>
<svg baseProfile="tiny" height="225" version="1.2" width="225" xmlns="http://www.w3.org/2000/svg" xmlns:ev="http://www.w3.org/2001/xml-events" xmlns:xlink="http://www.w3.org/1999/xlink"><defs /><rect fill="white" height="100%" width="100%" x="0" y="0" /><path d="M 194,218 L 193,219 L 192,219 L 193,219 L 194,218 L 195,219 L 195,220 L 195,219 Z" fill="black" stroke="black" stroke-width="1" /><path d="M 181,211 L 181,213 L 182,213 L 183,214 L 183,220 L 185,220 L 185,214 L 186,213 L 187,213 L 188,214 L 188,220 L 190,220 L 190,217 L 190,219 L 189,220 L 188,219 L 188,213 L 189,212 L 190,212 L 191,213 L 190,214 L 191,214 L 192,215 L 193,215 L 196,212 L 197,213 L 197,220 L 197,212 L 195,212 L 195,213 L 194,214 L 192,214 L 191,213 L 191,212 L 189,212 L 188,213 L 185,213 L 185,219 L 184,220 L 183,219 L 183,213 L 182,213 L 181,212 L 182,211 L 187,211 Z" fill="black" stroke="black" stroke-width="1" /><path d="M 62,175 Z" fill="black" stroke="black" stroke-width="1" /><path d="M 162,174 L 162,175 Z" fill="black" stroke="black" stroke-width="1" /><path d="M 27,100 L 26,101 L 24,101 L 23,102 L 21,102 L 20,103 L 19,103 L 18,104 L 17,104 L 16,105 L 15,105 L 14,106 L 13,106 L 12,107 L 11,107 L 10,108 L 8,108 L 7,109 L 0,109 L 7,109 L 8,108 L 10,108 L 11,107 L 13,107 L 14,106 L 15,106 L 16,105 L 17,105 L 18,104 L 19,104 L 20,103 L 21,103 L 22,102 L 23,102 L 24,101 L 26,101 L 27,100 L 36,100 L 37,101 L 37,102 L 35,104 L 35,106 L 34,107 L 34,108 L 33,109 L 27,109 L 26,110 L 24,110 L 23,111 L 21,111 L 20,112 L 19,112 L 17,114 L 16,114 L 15,115 L 14,115 L 13,116 L 12,116 L 11,117 L 9,117 L 8,118 L 0,118 L 8,118 L 9,117 L 11,117 L 12,116 L 13,116 L 14,115 L 16,115 L 17,114 L 18,114 L 20,112 L 21,112 L 22,111 L 23,111 L 24,110 L 26,110 L 27,109 L 34,109 L 34,108 L 35,107 L 35,105 L 37,103 L 37,100 Z" fill="black" stroke="black" stroke-width="1" /><path d="M 188,96 L 186,98 L 187,97 L 189,99 L 188,100 L 187,100 L 187,103 L 189,105 L 189,106 L 190,107 L 190,109 L 196,109 L 197,110 L 200,110 L 201,111 L 202,111 L 203,112 L 204,112 L 205,113 L 206,113 L 208,115 L 209,115 L 210,116 L 212,116 L 213,117 L 215,117 L 216,118 L 223,118 L 224,119 L 224,118 L 216,118 L 215,117 L 213,117 L 212,116 L 211,116 L 210,115 L 209,115 L 207,113 L 206,113 L 205,112 L 203,112 L 202,111 L 201,111 L 200,110 L 197,110 L 196,109 L 191,109 L 190,108 L 190,107 L 189,106 L 189,104 L 187,102 L 187,101 L 189,99 L 190,99 L 191,100 L 197,100 L 198,101 L 200,101 L 201,102 L 202,102 L 203,103 L 204,103 L 205,104 L 206,104 L 207,105 L 208,105 L 209,106 L 210,106 L 211,107 L 213,107 L 214,108 L 216,108 L 217,109 L 224,109 L 217,109 L 216,108 L 214,108 L 213,107 L 211,107 L 210,106 L 209,106 L 207,104 L 206,104 L 205,103 L 204,103 L 203,102 L 201,102 L 200,101 L 198,101 L 197,100 L 191,100 L 190,99 L 189,99 L 187,97 Z" fill="black" stroke="black" stroke-width="1" /><path d="M 92,78 L 91,79 L 91,82 L 94,82 L 95,81 L 100,81 L 101,82 L 103,82 L 101,82 L 100,81 L 95,81 L 94,82 L 92,82 L 91,81 L 91,80 L 93,78 L 99,78 L 100,79 L 101,79 L 102,80 L 103,80 L 102,79 L 100,79 L 99,78 Z" fill="black" stroke="black" stroke-width="1" /><path d="M 128,77 L 127,78 L 124,78 L 123,79 L 122,79 L 121,80 L 121,82 L 124,82 L 125,81 L 129,81 L 130,82 L 133,82 L 133,79 L 132,78 L 129,78 Z" fill="black" stroke="black" stroke-width="1" /><path d="M 71,75 L 68,78 L 68,79 L 67,80 L 67,81 L 66,82 L 66,83 L 65,84 L 65,86 L 64,87 L 64,90 L 63,91 L 63,101 L 64,102 L 64,105 L 65,106 L 65,109 L 66,110 L 66,112 L 67,113 L 67,116 L 68,117 L 68,125 L 67,126 L 67,127 L 66,128 L 66,129 L 65,130 L 65,131 L 63,133 L 63,134 L 59,138 L 59,139 L 57,141 L 57,142 L 55,144 L 55,146 L 54,147 L 54,157 L 55,158 L 55,159 L 56,160 L 56,162 L 58,164 L 58,165 L 59,166 L 54,171 L 53,171 L 51,173 L 50,173 L 48,175 L 46,175 L 45,176 L 43,176 L 42,177 L 38,177 L 34,173 L 34,172 L 30,172 L 29,173 L 28,173 L 23,178 L 23,181 L 24,182 L 24,183 L 26,185 L 29,185 L 35,179 L 36,179 L 39,182 L 37,184 L 36,184 L 31,189 L 31,191 L 34,194 L 35,194 L 37,196 L 38,196 L 43,191 L 44,191 L 46,193 L 46,194 L 42,198 L 42,200 L 45,203 L 46,203 L 48,205 L 50,205 L 50,203 L 51,202 L 51,201 L 52,200 L 52,199 L 54,197 L 54,196 L 57,193 L 57,192 L 59,190 L 59,189 L 61,187 L 61,185 L 62,184 L 62,183 L 63,182 L 63,177 L 63,182 L 62,183 L 62,184 L 61,185 L 61,186 L 59,188 L 59,189 L 57,191 L 57,192 L 54,195 L 54,196 L 52,198 L 52,200 L 51,201 L 51,202 L 50,203 L 50,204 L 49,205 L 47,203 L 46,203 L 42,199 L 46,195 L 46,192 L 45,191 L 42,191 L 38,195 L 37,195 L 36,194 L 35,194 L 31,190 L 37,184 L 38,184 L 39,183 L 39,181 L 37,179 L 34,179 L 28,185 L 27,185 L 24,182 L 24,181 L 23,180 L 23,179 L 29,173 L 30,173 L 31,172 L 33,172 L 35,174 L 35,175 L 37,177 L 42,177 L 43,176 L 45,176 L 46,175 L 48,175 L 49,174 L 50,174 L 51,173 L 52,173 L 54,171 L 55,171 L 58,168 L 58,167 L 59,166 L 58,165 L 58,164 L 57,163 L 57,162 L 56,161 L 56,160 L 55,159 L 55,158 L 54,157 L 54,147 L 55,146 L 55,145 L 57,143 L 57,142 L 59,140 L 59,139 L 63,135 L 63,134 L 65,132 L 65,131 L 66,130 L 66,129 L 67,128 L 67,126 L 68,125 L 68,117 L 67,116 L 67,113 L 66,112 L 66,110 L 65,109 L 65,106 L 64,105 L 64,102 L 63,101 L 63,91 L 64,90 L 64,87 L 65,86 L 65,84 L 66,83 L 66,82 L 68,80 L 68,79 L 69,78 L 69,77 Z" fill="black" stroke="black" stroke-width="1" /><path d="M 154,72 L 155,73 L 155,74 L 158,77 L 158,78 L 159,79 L 159,80 L 160,81 L 160,82 L 161,83 L 161,84 L 163,86 L 163,88 L 164,89 L 164,92 L 165,93 L 165,104 L 164,105 L 164,109 L 163,110 L 163,112 L 162,113 L 162,116 L 161,117 L 161,125 L 162,126 L 162,128 L 164,130 L 164,131 L 167,134 L 167,135 L 171,139 L 171,140 L 173,142 L 173,143 L 174,144 L 174,145 L 175,146 L 175,149 L 176,150 L 176,153 L 177,154 L 178,154 L 180,156 L 181,156 L 182,157 L 184,157 L 185,158 L 187,158 L 188,159 L 192,159 L 194,161 L 193,162 L 193,166 L 195,166 L 197,168 L 198,168 L 201,171 L 202,171 L 204,173 L 207,173 L 208,172 L 208,171 L 209,170 L 209,169 L 210,168 L 210,166 L 209,166 L 204,161 L 203,161 L 201,159 L 199,159 L 198,158 L 196,158 L 195,157 L 195,153 L 196,152 L 200,152 L 201,153 L 202,153 L 203,154 L 204,154 L 207,157 L 208,157 L 210,159 L 212,159 L 213,160 L 214,160 L 214,159 L 215,158 L 215,157 L 216,156 L 216,154 L 217,153 L 217,151 L 214,151 L 213,150 L 212,150 L 210,148 L 209,148 L 207,146 L 206,146 L 205,145 L 204,145 L 203,144 L 201,144 L 200,143 L 198,143 L 196,141 L 196,137 L 197,136 L 202,136 L 203,137 L 204,137 L 205,138 L 206,138 L 208,140 L 209,140 L 210,141 L 211,141 L 212,142 L 213,142 L 214,143 L 216,143 L 217,144 L 219,144 L 220,143 L 220,142 L 221,141 L 221,138 L 222,137 L 222,135 L 218,135 L 217,134 L 214,134 L 213,133 L 212,133 L 210,131 L 209,131 L 208,130 L 207,130 L 206,129 L 205,129 L 204,128 L 203,128 L 202,127 L 200,127 L 199,126 L 196,126 L 195,125 L 195,123 L 194,122 L 194,119 L 195,118 L 200,118 L 201,119 L 203,119 L 205,121 L 206,121 L 207,122 L 208,122 L 209,123 L 210,123 L 211,124 L 212,124 L 213,125 L 214,125 L 215,126 L 223,126 L 223,125 L 224,124 L 224,121 L 224,124 L 222,126 L 215,126 L 214,125 L 213,125 L 211,123 L 210,123 L 209,122 L 208,122 L 207,121 L 206,121 L 205,120 L 204,120 L 203,119 L 201,119 L 200,118 L 194,118 L 194,122 L 195,123 L 195,126 L 199,126 L 200,127 L 202,127 L 204,129 L 205,129 L 206,130 L 207,130 L 208,131 L 209,131 L 211,133 L 213,133 L 214,134 L 217,134 L 218,135 L 221,135 L 222,136 L 222,137 L 221,138 L 221,141 L 220,142 L 220,143 L 219,144 L 217,144 L 216,143 L 214,143 L 212,141 L 211,141 L 210,140 L 209,140 L 207,138 L 206,138 L 205,137 L 203,137 L 202,136 L 196,136 L 196,141 L 197,142 L 197,143 L 200,143 L 201,144 L 203,144 L 205,146 L 206,146 L 208,148 L 209,148 L 211,150 L 213,150 L 214,151 L 216,151 L 217,152 L 217,153 L 216,154 L 216,156 L 215,157 L 215,158 L 213,160 L 212,159 L 211,159 L 209,157 L 208,157 L 205,154 L 204,154 L 203,153 L 201,153 L 200,152 L 196,152 L 195,153 L 195,158 L 198,158 L 199,159 L 200,159 L 202,161 L 203,161 L 207,165 L 208,165 L 210,167 L 209,168 L 209,169 L 208,170 L 208,171 L 206,173 L 205,173 L 203,171 L 202,171 L 199,168 L 198,168 L 197,167 L 196,167 L 195,166 L 194,166 L 193,165 L 193,162 L 194,161 L 194,160 L 193,160 L 192,159 L 188,159 L 187,158 L 185,158 L 184,157 L 183,157 L 182,156 L 181,156 L 179,154 L 178,154 L 176,152 L 176,150 L 175,149 L 175,146 L 174,145 L 174,143 L 173,142 L 173,141 L 171,139 L 171,138 L 167,134 L 167,133 L 164,130 L 164,129 L 162,127 L 162,126 L 161,125 L 161,117 L 162,116 L 162,113 L 163,112 L 163,110 L 164,109 L 164,105 L 165,104 L 165,93 L 164,92 L 164,89 L 163,88 L 163,86 L 162,85 L 162,84 L 161,83 L 161,82 L 160,81 L 160,80 L 159,79 L 159,78 L 156,75 L 156,74 Z" fill="black" stroke="black" stroke-width="1" /><path d="M 152,72 L 152,73 L 153,74 L 153,75 L 155,77 L 155,78 L 157,80 L 157,81 L 158,82 L 158,83 L 159,84 L 159,86 L 160,87 L 160,90 L 161,91 L 161,101 L 160,102 L 160,105 L 159,106 L 159,109 L 158,110 L 158,112 L 157,113 L 157,116 L 156,117 L 156,125 L 157,126 L 157,128 L 158,129 L 158,130 L 159,131 L 159,132 L 162,135 L 162,136 L 165,139 L 165,140 L 167,142 L 167,143 L 169,145 L 169,146 L 170,147 L 170,150 L 171,151 L 170,152 L 170,156 L 169,157 L 169,159 L 168,160 L 168,161 L 167,162 L 167,163 L 166,164 L 166,165 L 165,166 L 165,168 L 164,169 L 163,169 L 164,169 L 165,168 L 166,168 L 169,171 L 170,171 L 172,173 L 173,173 L 174,174 L 175,174 L 176,175 L 178,175 L 179,176 L 181,176 L 182,177 L 187,177 L 188,176 L 189,176 L 189,175 L 190,174 L 190,173 L 191,172 L 193,172 L 194,173 L 195,173 L 201,179 L 201,180 L 200,181 L 200,182 L 197,185 L 196,185 L 190,179 L 187,179 L 186,180 L 186,181 L 185,182 L 185,183 L 186,184 L 187,184 L 192,189 L 192,191 L 188,195 L 186,195 L 182,191 L 179,191 L 178,192 L 178,195 L 179,195 L 180,196 L 180,197 L 182,199 L 177,204 L 176,204 L 175,205 L 174,204 L 174,203 L 173,202 L 173,200 L 172,199 L 172,198 L 170,196 L 170,195 L 168,193 L 168,192 L 165,189 L 165,188 L 163,186 L 163,185 L 162,184 L 162,183 L 161,182 L 161,177 L 161,182 L 162,183 L 162,185 L 163,186 L 163,187 L 165,189 L 165,190 L 168,193 L 168,194 L 170,196 L 170,197 L 172,199 L 172,200 L 173,201 L 173,202 L 174,203 L 174,205 L 176,205 L 177,204 L 178,204 L 182,200 L 182,198 L 180,196 L 180,195 L 179,195 L 178,194 L 178,193 L 180,191 L 181,191 L 186,196 L 187,196 L 188,195 L 189,195 L 193,191 L 192,190 L 193,189 L 188,184 L 187,184 L 185,182 L 188,179 L 189,179 L 195,185 L 198,185 L 200,183 L 200,182 L 202,180 L 202,179 L 196,173 L 195,173 L 194,172 L 190,172 L 190,173 L 189,174 L 189,175 L 187,177 L 182,177 L 181,176 L 179,176 L 178,175 L 176,175 L 174,173 L 173,173 L 171,171 L 170,171 L 167,168 L 166,168 L 165,167 L 166,166 L 166,165 L 167,164 L 167,162 L 168,161 L 168,160 L 169,159 L 169,157 L 170,156 L 170,152 L 171,151 L 170,150 L 170,147 L 169,146 L 169,144 L 167,142 L 167,141 L 165,139 L 165,138 L 162,135 L 162,134 L 159,131 L 159,130 L 158,129 L 158,128 L 157,127 L 157,126 L 156,125 L 156,117 L 157,116 L 157,113 L 158,112 L 158,110 L 159,109 L 159,106 L 160,105 L 160,102 L 161,101 L 161,91 L 160,90 L 160,87 L 159,86 L 159,84 L 158,83 L 158,82 L 157,81 L 157,80 L 156,79 L 156,78 L 153,75 L 153,74 L 152,73 Z" fill="black" stroke="black" stroke-width="1" /><path d="M 72,72 L 72,73 Z" fill="black" stroke="black" stroke-width="1" /><path d="M 70,72 L 68,74 L 68,75 L 65,78 L 65,79 L 64,80 L 64,81 L 63,82 L 63,83 L 62,84 L 62,85 L 61,86 L 61,88 L 60,89 L 60,92 L 59,93 L 59,104 L 60,105 L 60,108 L 61,109 L 61,112 L 62,113 L 62,116 L 63,117 L 63,125 L 62,126 L 62,127 L 60,129 L 60,130 L 56,134 L 56,135 L 53,138 L 53,139 L 51,141 L 51,142 L 50,143 L 50,145 L 49,146 L 49,150 L 48,151 L 48,152 L 46,154 L 45,154 L 43,156 L 42,156 L 41,157 L 40,157 L 39,158 L 37,158 L 36,159 L 32,159 L 31,160 L 30,160 L 30,162 L 31,163 L 31,165 L 29,167 L 27,167 L 26,168 L 25,168 L 22,171 L 21,171 L 19,173 L 18,173 L 17,172 L 17,171 L 15,169 L 15,168 L 14,167 L 16,165 L 17,165 L 21,161 L 22,161 L 24,159 L 25,159 L 26,158 L 29,158 L 29,154 L 28,153 L 28,152 L 24,152 L 23,153 L 21,153 L 20,154 L 19,154 L 18,153 L 19,154 L 16,157 L 15,157 L 13,159 L 10,159 L 9,158 L 9,157 L 8,156 L 8,154 L 7,153 L 7,152 L 8,151 L 10,151 L 11,150 L 13,150 L 14,149 L 15,149 L 18,146 L 19,146 L 20,145 L 21,145 L 22,144 L 23,144 L 24,143 L 27,143 L 27,142 L 28,141 L 28,136 L 22,136 L 21,137 L 19,137 L 18,138 L 17,138 L 15,140 L 14,140 L 13,141 L 12,141 L 10,143 L 8,143 L 7,144 L 5,144 L 4,143 L 4,142 L 3,141 L 3,139 L 2,138 L 2,136 L 3,135 L 5,135 L 6,134 L 10,134 L 11,133 L 13,133 L 14,132 L 15,132 L 17,130 L 18,130 L 19,129 L 20,129 L 22,127 L 24,127 L 25,126 L 29,126 L 29,123 L 30,122 L 30,118 L 29,117 L 28,118 L 24,118 L 23,119 L 21,119 L 20,120 L 19,120 L 18,121 L 17,121 L 16,122 L 15,122 L 14,123 L 13,123 L 11,125 L 9,125 L 8,126 L 2,126 L 0,124 L 0,121 L 0,124 L 1,125 L 1,126 L 8,126 L 9,125 L 11,125 L 12,124 L 13,124 L 14,123 L 15,123 L 16,122 L 17,122 L 18,121 L 19,121 L 21,119 L 23,119 L 24,118 L 28,118 L 29,117 L 30,118 L 30,122 L 29,123 L 29,125 L 28,126 L 25,126 L 24,127 L 22,127 L 21,128 L 20,128 L 19,129 L 18,129 L 17,130 L 16,130 L 14,132 L 13,132 L 12,133 L 11,133 L 10,134 L 6,134 L 5,135 L 2,135 L 2,138 L 3,139 L 3,141 L 4,142 L 4,143 L 5,144 L 7,144 L 8,143 L 10,143 L 11,142 L 12,142 L 13,141 L 14,141 L 15,140 L 16,140 L 18,138 L 19,138 L 20,137 L 21,137 L 22,136 L 27,136 L 28,137 L 28,141 L 26,143 L 24,143 L 23,144 L 21,144 L 20,145 L 19,145 L 18,146 L 17,146 L 14,149 L 13,149 L 12,150 L 11,150 L 10,151 L 7,151 L 7,153 L 8,154 L 8,156 L 9,157 L 9,158 L 10,159 L 14,159 L 16,157 L 17,157 L 20,154 L 21,154 L 22,153 L 23,153 L 24,152 L 27,152 L 29,154 L 29,157 L 28,158 L 26,158 L 25,159 L 23,159 L 21,161 L 20,161 L 16,165 L 15,165 L 14,166 L 14,168 L 15,169 L 15,170 L 17,172 L 17,173 L 20,173 L 22,171 L 23,171 L 26,168 L 27,168 L 28,167 L 29,167 L 30,166 L 31,166 L 31,163 L 30,162 L 30,161 L 32,159 L 36,159 L 37,158 L 39,158 L 40,157 L 42,157 L 43,156 L 44,156 L 46,154 L 47,154 L 48,153 L 48,151 L 49,150 L 49,146 L 50,145 L 50,144 L 51,143 L 51,142 L 53,140 L 53,139 L 56,136 L 56,135 L 60,131 L 60,130 L 62,128 L 62,126 L 63,125 L 63,117 L 62,116 L 62,113 L 61,112 L 61,109 L 60,108 L 60,105 L 59,104 L 59,93 L 60,92 L 60,89 L 61,88 L 61,86 L 63,84 L 63,83 L 64,82 L 64,81 L 65,80 L 65,79 L 66,78 L 66,77 L 70,73 Z" fill="black" stroke="black" stroke-width="1" /><path d="M 62,72 L 61,73 L 60,73 L 56,77 L 55,77 L 49,83 L 49,84 L 44,89 L 44,90 L 41,93 L 40,93 L 39,92 L 30,92 L 29,93 L 27,93 L 26,94 L 24,94 L 23,95 L 21,95 L 19,97 L 18,97 L 17,98 L 15,98 L 14,99 L 12,99 L 11,100 L 4,100 L 11,100 L 12,99 L 14,99 L 15,98 L 17,98 L 18,97 L 19,97 L 20,96 L 21,96 L 22,95 L 23,95 L 24,94 L 26,94 L 27,93 L 29,93 L 30,92 L 39,92 L 40,93 L 42,93 L 44,91 L 44,90 L 49,85 L 49,84 L 56,77 L 57,77 L 61,73 L 62,73 L 63,72 Z" fill="black" stroke="black" stroke-width="1" /><path d="M 144,67 L 145,68 L 145,69 L 149,73 L 149,74 L 151,76 L 151,77 L 152,78 L 152,79 L 153,80 L 153,81 L 154,82 L 154,84 L 155,85 L 155,88 L 156,89 L 156,99 L 155,100 L 155,104 L 154,105 L 154,107 L 153,108 L 153,109 L 152,110 L 152,113 L 151,114 L 151,116 L 150,117 L 150,125 L 151,126 L 151,128 L 152,129 L 152,130 L 154,132 L 154,133 L 157,136 L 157,137 L 160,140 L 160,141 L 162,143 L 162,144 L 163,145 L 163,146 L 164,147 L 164,156 L 163,157 L 163,159 L 161,161 L 161,162 L 160,163 L 160,164 L 159,165 L 159,166 L 157,168 L 157,169 L 155,171 L 155,172 L 154,173 L 154,175 L 153,176 L 153,177 L 152,178 L 152,185 L 153,186 L 153,188 L 154,189 L 154,190 L 155,191 L 155,193 L 156,194 L 156,195 L 157,196 L 157,197 L 158,198 L 158,199 L 160,201 L 160,202 L 161,203 L 161,205 L 162,206 L 162,208 L 163,209 L 163,212 L 165,212 L 167,210 L 168,210 L 169,209 L 169,205 L 168,204 L 168,203 L 167,202 L 167,200 L 166,199 L 166,198 L 164,196 L 164,195 L 162,193 L 162,192 L 161,191 L 161,190 L 160,189 L 160,188 L 159,187 L 159,176 L 160,175 L 160,174 L 160,175 L 159,176 L 159,187 L 160,188 L 160,190 L 161,191 L 161,192 L 162,193 L 162,194 L 160,196 L 162,194 L 164,196 L 164,197 L 166,199 L 166,200 L 167,201 L 167,202 L 168,203 L 168,204 L 169,205 L 169,208 L 167,210 L 166,210 L 164,212 L 163,211 L 163,209 L 162,208 L 162,206 L 161,205 L 161,203 L 160,202 L 160,201 L 159,200 L 159,199 L 158,198 L 158,197 L 157,196 L 157,195 L 156,194 L 156,193 L 155,192 L 155,191 L 154,190 L 154,189 L 153,188 L 153,186 L 152,185 L 152,178 L 153,177 L 153,176 L 154,175 L 154,174 L 155,173 L 155,172 L 157,170 L 157,169 L 159,167 L 159,166 L 160,165 L 160,164 L 161,163 L 161,162 L 162,161 L 162,160 L 163,159 L 163,157 L 164,156 L 164,147 L 163,146 L 163,144 L 162,143 L 162,142 L 160,140 L 160,139 L 161,138 L 160,139 L 157,136 L 157,135 L 154,132 L 154,131 L 152,129 L 152,128 L 151,127 L 151,126 L 150,125 L 150,117 L 151,116 L 151,114 L 152,113 L 152,111 L 153,110 L 153,108 L 154,107 L 154,105 L 155,104 L 155,100 L 156,99 L 156,89 L 155,88 L 155,85 L 154,84 L 154,82 L 153,81 L 153,79 L 152,78 L 152,77 L 151,76 L 151,75 L 148,72 L 148,71 Z" fill="black" stroke="black" stroke-width="1" /><path d="M 134,64 L 136,66 L 136,67 L 139,70 L 139,71 L 141,73 L 141,74 L 143,76 L 143,77 L 144,78 L 144,80 L 145,81 L 145,86 L 146,87 L 146,93 L 145,94 L 145,97 L 144,98 L 144,101 L 143,102 L 143,103 L 142,104 L 142,105 L 141,106 L 141,108 L 140,109 L 140,110 L 139,111 L 139,113 L 138,114 L 138,117 L 137,118 L 137,124 L 138,125 L 138,127 L 139,128 L 139,130 L 140,131 L 140,132 L 143,135 L 143,136 L 146,139 L 146,140 L 148,142 L 148,143 L 150,145 L 150,146 L 151,147 L 151,155 L 150,156 L 150,158 L 149,159 L 149,160 L 147,162 L 147,163 L 146,164 L 146,165 L 144,167 L 144,168 L 142,170 L 142,171 L 141,172 L 141,173 L 139,175 L 139,177 L 138,178 L 138,183 L 137,184 L 138,185 L 138,188 L 139,189 L 139,191 L 140,192 L 140,194 L 141,195 L 141,196 L 143,198 L 143,199 L 144,200 L 144,201 L 145,202 L 145,203 L 146,204 L 146,205 L 147,206 L 147,207 L 148,208 L 148,211 L 149,212 L 149,216 L 151,218 L 152,217 L 153,217 L 154,216 L 156,216 L 157,215 L 157,212 L 156,211 L 156,209 L 155,208 L 155,205 L 153,203 L 153,201 L 152,200 L 152,199 L 151,198 L 151,197 L 149,195 L 149,194 L 148,193 L 148,192 L 147,191 L 147,190 L 146,189 L 146,187 L 145,186 L 145,179 L 146,178 L 146,176 L 148,174 L 148,173 L 149,172 L 149,171 L 151,169 L 151,168 L 152,167 L 152,166 L 154,164 L 154,163 L 155,162 L 155,161 L 156,160 L 156,159 L 157,158 L 157,156 L 158,155 L 158,147 L 157,146 L 157,144 L 155,142 L 155,141 L 152,138 L 152,137 L 149,134 L 149,133 L 147,131 L 147,130 L 145,128 L 145,126 L 144,125 L 144,117 L 145,116 L 145,113 L 146,112 L 146,110 L 147,109 L 147,108 L 148,107 L 148,105 L 149,104 L 149,102 L 150,101 L 150,98 L 151,97 L 151,85 L 150,84 L 150,81 L 149,80 L 149,79 L 148,78 L 148,76 L 147,75 L 147,74 L 143,70 L 143,69 L 142,68 L 142,67 L 142,69 L 146,73 L 146,74 L 147,75 L 147,76 L 148,77 L 148,78 L 149,79 L 149,80 L 150,81 L 150,84 L 151,85 L 151,97 L 150,98 L 150,101 L 149,102 L 149,104 L 148,105 L 148,107 L 147,108 L 147,109 L 146,110 L 146,112 L 145,113 L 145,116 L 144,117 L 144,125 L 145,126 L 145,129 L 147,131 L 147,132 L 149,134 L 149,135 L 152,138 L 152,139 L 155,142 L 155,143 L 157,145 L 157,146 L 158,147 L 158,155 L 157,156 L 157,158 L 155,160 L 155,161 L 154,162 L 154,163 L 152,165 L 152,166 L 151,167 L 151,168 L 149,170 L 149,171 L 148,172 L 148,173 L 147,174 L 147,175 L 146,176 L 146,178 L 145,179 L 145,186 L 146,187 L 146,189 L 147,190 L 147,192 L 148,193 L 148,194 L 149,195 L 149,196 L 151,198 L 151,199 L 152,200 L 152,201 L 153,202 L 153,203 L 154,204 L 154,205 L 155,206 L 155,208 L 156,209 L 156,211 L 157,212 L 157,214 L 155,216 L 154,216 L 153,217 L 152,217 L 151,218 L 149,216 L 149,212 L 148,211 L 148,208 L 147,207 L 147,206 L 146,205 L 146,203 L 144,201 L 144,199 L 143,198 L 143,197 L 141,195 L 141,194 L 140,193 L 140,192 L 139,191 L 139,189 L 138,188 L 138,185 L 137,184 L 138,183 L 138,178 L 139,177 L 139,176 L 141,174 L 141,173 L 142,172 L 142,171 L 144,169 L 144,168 L 146,166 L 146,165 L 147,164 L 147,163 L 149,161 L 149,159 L 150,158 L 150,156 L 151,155 L 151,147 L 150,146 L 150,144 L 148,142 L 148,141 L 146,139 L 146,138 L 143,135 L 143,134 L 140,131 L 140,130 L 139,129 L 139,128 L 138,127 L 138,125 L 137,124 L 137,118 L 138,117 L 138,114 L 139,113 L 139,111 L 140,110 L 140,109 L 141,108 L 141,107 L 142,106 L 142,104 L 143,103 L 143,102 L 144,101 L 144,98 L 145,97 L 145,94 L 146,93 L 146,87 L 145,86 L 145,81 L 144,80 L 144,78 L 143,77 L 143,76 L 142,75 L 142,74 L 141,73 L 141,72 L 139,70 L 139,69 Z" fill="black" stroke="black" stroke-width="1" /><path d="M 92,64 L 92,65 L 90,67 L 90,68 L 87,71 L 87,73 L 86,74 L 86,76 L 85,77 L 85,80 L 84,81 L 84,92 L 85,93 L 85,96 L 86,97 L 86,99 L 87,100 L 87,101 L 88,102 L 88,104 L 90,106 L 90,108 L 91,109 L 91,110 L 92,111 L 92,113 L 93,114 L 93,117 L 94,118 L 94,125 L 93,126 L 93,129 L 91,131 L 91,132 L 89,134 L 89,135 L 86,138 L 86,139 L 83,142 L 83,143 L 82,144 L 82,146 L 81,147 L 81,156 L 82,157 L 82,159 L 83,160 L 83,161 L 85,163 L 85,164 L 87,166 L 87,167 L 88,168 L 88,169 L 91,172 L 91,173 L 92,174 L 92,175 L 93,176 L 93,177 L 94,178 L 94,181 L 95,182 L 95,186 L 94,187 L 94,190 L 93,191 L 93,193 L 92,194 L 92,195 L 91,196 L 91,197 L 90,198 L 90,199 L 89,200 L 89,201 L 88,202 L 88,203 L 87,204 L 87,205 L 86,206 L 86,208 L 85,209 L 85,211 L 84,212 L 84,216 L 83,217 L 83,219 L 84,220 L 84,221 L 86,221 L 87,222 L 91,222 L 92,221 L 92,212 L 93,211 L 93,209 L 94,208 L 94,206 L 95,205 L 95,204 L 96,203 L 96,201 L 98,199 L 98,198 L 99,197 L 99,195 L 100,194 L 100,193 L 101,192 L 101,190 L 102,189 L 102,186 L 103,185 L 103,184 L 102,183 L 102,179 L 101,178 L 101,176 L 99,174 L 99,173 L 98,172 L 98,171 L 96,169 L 96,168 L 94,166 L 94,165 L 92,163 L 92,162 L 91,161 L 91,160 L 89,158 L 89,156 L 88,155 L 88,147 L 89,146 L 89,145 L 91,143 L 91,142 L 94,139 L 94,138 L 97,135 L 97,134 L 98,133 L 98,131 L 99,130 L 99,128 L 100,127 L 100,126 L 102,124 L 104,124 L 105,125 L 108,125 L 109,126 L 115,126 L 116,125 L 119,125 L 120,124 L 122,124 L 124,126 L 124,127 L 125,128 L 125,130 L 126,131 L 126,133 L 127,134 L 127,135 L 130,138 L 130,139 L 133,142 L 133,143 L 135,145 L 135,146 L 136,147 L 136,155 L 135,156 L 135,158 L 133,160 L 133,161 L 131,163 L 131,164 L 130,165 L 130,166 L 128,168 L 128,169 L 126,171 L 126,172 L 124,174 L 124,176 L 123,177 L 123,178 L 122,179 L 122,183 L 121,184 L 121,185 L 122,186 L 122,189 L 123,190 L 123,192 L 124,193 L 124,195 L 125,196 L 125,197 L 127,199 L 127,200 L 128,201 L 128,203 L 129,204 L 129,205 L 130,206 L 130,207 L 131,208 L 131,211 L 132,212 L 132,221 L 133,222 L 137,222 L 138,221 L 140,221 L 140,219 L 141,218 L 141,216 L 140,215 L 140,212 L 139,211 L 139,209 L 138,208 L 138,206 L 137,205 L 137,204 L 136,203 L 136,202 L 135,201 L 135,200 L 134,199 L 134,198 L 133,197 L 133,196 L 132,195 L 132,194 L 131,193 L 131,191 L 130,190 L 130,187 L 129,186 L 129,182 L 130,181 L 130,178 L 131,177 L 131,176 L 132,175 L 132,174 L 134,172 L 134,171 L 135,170 L 135,169 L 137,167 L 137,166 L 139,164 L 139,163 L 141,161 L 141,159 L 142,158 L 142,156 L 143,155 L 143,147 L 142,146 L 142,144 L 140,142 L 140,141 L 138,139 L 138,138 L 135,135 L 135,134 L 133,132 L 133,131 L 132,130 L 132,129 L 131,128 L 131,126 L 130,125 L 130,118 L 131,117 L 131,114 L 132,113 L 132,111 L 133,110 L 133,109 L 134,108 L 134,106 L 135,105 L 135,104 L 137,102 L 137,100 L 138,99 L 138,97 L 139,96 L 139,93 L 140,92 L 140,81 L 139,80 L 139,77 L 138,76 L 138,74 L 137,73 L 137,71 L 134,68 L 134,67 L 132,65 L 132,64 L 132,66 L 135,69 L 135,70 L 137,72 L 137,73 L 138,74 L 138,76 L 139,77 L 139,80 L 140,81 L 140,92 L 139,93 L 139,96 L 138,97 L 138,99 L 137,100 L 137,101 L 136,102 L 136,103 L 135,104 L 135,105 L 134,106 L 134,108 L 133,109 L 133,110 L 132,111 L 132,113 L 131,114 L 131,117 L 130,118 L 130,125 L 131,126 L 131,128 L 132,129 L 132,131 L 133,132 L 133,133 L 132,134 L 133,133 L 135,135 L 135,136 L 138,139 L 138,140 L 140,142 L 140,143 L 142,145 L 142,146 L 143,147 L 143,155 L 142,156 L 142,158 L 141,159 L 141,160 L 139,162 L 139,163 L 137,165 L 137,166 L 135,168 L 135,169 L 134,170 L 134,171 L 132,173 L 132,174 L 131,175 L 131,177 L 130,178 L 130,181 L 129,182 L 129,186 L 130,187 L 130,190 L 131,191 L 131,194 L 132,195 L 132,196 L 134,198 L 134,200 L 135,201 L 135,202 L 136,203 L 136,204 L 138,206 L 138,208 L 139,209 L 139,211 L 140,212 L 140,215 L 141,216 L 141,218 L 140,219 L 140,220 L 139,221 L 138,221 L 137,222 L 133,222 L 132,221 L 132,212 L 131,211 L 131,208 L 130,207 L 130,206 L 129,205 L 129,203 L 128,202 L 128,201 L 127,200 L 127,199 L 126,198 L 126,197 L 125,196 L 125,195 L 124,194 L 124,193 L 123,192 L 123,190 L 122,189 L 122,186 L 124,184 L 124,183 L 124,184 L 122,186 L 121,185 L 121,184 L 122,183 L 122,179 L 123,178 L 123,177 L 124,176 L 124,175 L 126,173 L 126,172 L 128,170 L 128,169 L 130,167 L 130,166 L 131,165 L 131,164 L 133,162 L 133,161 L 134,160 L 134,159 L 135,158 L 135,156 L 136,155 L 136,147 L 135,146 L 135,145 L 134,144 L 134,143 L 133,142 L 133,141 L 130,138 L 130,137 L 127,134 L 127,133 L 126,132 L 126,131 L 125,130 L 125,128 L 124,127 L 124,125 L 123,124 L 120,124 L 119,125 L 116,125 L 115,126 L 109,126 L 108,125 L 105,125 L 104,124 L 101,124 L 100,125 L 100,127 L 99,128 L 99,130 L 98,131 L 98,132 L 97,133 L 97,134 L 94,137 L 94,138 L 91,141 L 91,142 L 89,144 L 89,146 L 88,147 L 88,155 L 89,156 L 89,158 L 90,159 L 90,160 L 91,161 L 91,162 L 92,163 L 92,164 L 94,166 L 94,167 L 96,169 L 96,170 L 98,172 L 98,173 L 97,174 L 98,173 L 100,175 L 100,176 L 101,177 L 101,178 L 102,179 L 102,183 L 103,184 L 103,185 L 102,186 L 102,189 L 101,190 L 101,192 L 100,193 L 100,194 L 99,195 L 99,196 L 98,197 L 98,198 L 97,199 L 97,200 L 96,201 L 96,203 L 95,204 L 95,205 L 94,206 L 94,208 L 93,209 L 93,211 L 92,212 L 92,221 L 91,222 L 87,222 L 86,221 L 85,221 L 83,219 L 83,217 L 84,216 L 84,212 L 85,211 L 85,209 L 86,208 L 86,206 L 88,204 L 88,202 L 90,200 L 90,198 L 92,196 L 92,194 L 93,193 L 93,191 L 94,190 L 94,187 L 95,186 L 95,182 L 94,181 L 94,178 L 93,177 L 93,175 L 92,174 L 92,173 L 91,172 L 91,171 L 88,168 L 88,167 L 87,166 L 87,165 L 85,163 L 85,162 L 83,160 L 83,159 L 82,158 L 82,157 L 81,156 L 81,147 L 82,146 L 82,145 L 83,144 L 83,143 L 86,140 L 86,139 L 89,136 L 89,135 L 91,133 L 91,132 L 92,131 L 92,130 L 93,129 L 93,126 L 94,125 L 94,118 L 93,117 L 93,114 L 92,113 L 92,111 L 91,110 L 91,109 L 90,108 L 90,106 L 89,105 L 89,104 L 88,103 L 88,102 L 87,101 L 87,100 L 86,99 L 86,97 L 85,96 L 85,93 L 84,92 L 84,81 L 85,80 L 85,77 L 86,76 L 86,74 L 87,73 L 87,72 L 89,70 L 89,69 L 92,66 Z" fill="black" stroke="black" stroke-width="1" /><path d="M 90,64 L 87,67 L 86,66 L 87,67 L 85,69 L 85,70 L 83,72 L 83,73 L 82,74 L 82,75 L 81,76 L 81,77 L 80,78 L 80,80 L 79,81 L 79,86 L 78,87 L 78,92 L 79,93 L 79,98 L 80,99 L 80,101 L 81,102 L 81,103 L 82,104 L 82,106 L 83,107 L 83,108 L 84,109 L 84,110 L 85,111 L 85,113 L 86,114 L 86,117 L 87,118 L 87,124 L 86,125 L 86,127 L 85,128 L 85,129 L 84,130 L 84,131 L 81,134 L 81,135 L 78,138 L 78,139 L 76,141 L 76,142 L 75,143 L 75,144 L 74,145 L 74,146 L 73,147 L 73,155 L 74,156 L 74,158 L 75,159 L 75,161 L 77,163 L 77,164 L 78,165 L 78,166 L 80,168 L 80,169 L 82,171 L 82,172 L 83,173 L 83,174 L 85,176 L 85,177 L 86,178 L 86,182 L 87,183 L 87,184 L 86,185 L 86,188 L 85,189 L 85,191 L 84,192 L 84,193 L 83,194 L 83,195 L 81,197 L 80,196 L 81,197 L 81,198 L 80,199 L 80,200 L 79,201 L 79,202 L 78,203 L 78,205 L 77,206 L 77,208 L 76,209 L 76,211 L 75,212 L 75,216 L 73,218 L 72,217 L 71,217 L 70,216 L 69,216 L 67,214 L 67,212 L 68,211 L 68,208 L 69,207 L 69,206 L 70,205 L 70,204 L 71,203 L 71,202 L 72,201 L 72,200 L 73,199 L 73,198 L 75,196 L 75,195 L 76,194 L 76,193 L 77,192 L 77,190 L 78,189 L 78,187 L 79,186 L 79,179 L 78,178 L 78,176 L 77,175 L 77,174 L 76,173 L 76,172 L 75,171 L 75,170 L 74,169 L 74,168 L 72,166 L 72,165 L 70,163 L 70,162 L 68,160 L 68,159 L 67,158 L 67,156 L 66,155 L 66,147 L 67,146 L 67,145 L 69,143 L 69,142 L 72,139 L 72,138 L 75,135 L 75,134 L 77,132 L 77,131 L 78,130 L 78,129 L 79,128 L 79,126 L 80,125 L 80,117 L 79,116 L 79,113 L 78,112 L 78,110 L 77,109 L 77,108 L 76,107 L 76,105 L 75,104 L 75,102 L 74,101 L 74,98 L 73,97 L 73,85 L 74,84 L 74,81 L 75,80 L 75,79 L 76,78 L 76,76 L 78,74 L 78,73 L 82,69 L 82,67 L 80,67 L 76,71 L 76,72 L 73,75 L 73,76 L 72,77 L 72,78 L 71,79 L 71,81 L 70,82 L 70,84 L 69,85 L 69,88 L 68,89 L 68,99 L 69,100 L 69,103 L 70,104 L 70,107 L 71,108 L 71,110 L 72,111 L 72,113 L 73,114 L 73,116 L 74,117 L 74,125 L 73,126 L 73,127 L 72,128 L 72,129 L 70,131 L 70,132 L 67,135 L 67,136 L 64,139 L 64,140 L 62,142 L 62,143 L 61,144 L 61,146 L 60,147 L 60,156 L 61,157 L 61,159 L 62,160 L 62,161 L 63,162 L 63,163 L 64,164 L 64,165 L 66,167 L 66,168 L 67,169 L 67,170 L 69,172 L 69,173 L 70,174 L 70,175 L 71,176 L 71,177 L 72,178 L 72,185 L 71,186 L 71,188 L 70,189 L 70,190 L 69,191 L 69,192 L 68,193 L 68,194 L 67,195 L 67,196 L 66,197 L 66,198 L 65,199 L 65,200 L 64,201 L 64,202 L 63,203 L 63,205 L 62,206 L 62,208 L 61,209 L 61,211 L 60,212 L 58,210 L 57,210 L 55,208 L 55,205 L 56,204 L 56,203 L 57,202 L 57,201 L 58,200 L 58,199 L 60,197 L 60,196 L 62,194 L 62,193 L 63,192 L 63,190 L 64,189 L 64,188 L 65,187 L 65,176 L 64,175 L 64,174 L 64,175 L 65,176 L 65,187 L 64,188 L 64,189 L 63,190 L 63,191 L 62,192 L 62,193 L 60,195 L 60,196 L 58,198 L 58,199 L 57,200 L 57,202 L 56,203 L 56,204 L 55,205 L 55,209 L 56,210 L 57,210 L 59,212 L 61,212 L 61,209 L 62,208 L 62,206 L 63,205 L 63,203 L 65,201 L 65,200 L 66,199 L 66,198 L 67,197 L 67,196 L 68,195 L 68,194 L 69,193 L 69,192 L 70,191 L 70,189 L 71,188 L 71,186 L 72,185 L 72,178 L 71,177 L 71,175 L 70,174 L 70,173 L 69,172 L 69,171 L 67,169 L 67,168 L 66,167 L 66,166 L 64,164 L 64,163 L 63,162 L 63,161 L 61,159 L 61,157 L 60,156 L 60,147 L 61,146 L 61,145 L 62,144 L 62,143 L 64,141 L 64,140 L 67,137 L 67,136 L 70,133 L 70,132 L 72,130 L 72,129 L 73,128 L 73,126 L 74,125 L 74,117 L 73,116 L 73,114 L 72,113 L 72,111 L 71,110 L 71,108 L 70,107 L 70,104 L 69,103 L 69,100 L 68,99 L 68,89 L 69,88 L 69,85 L 70,84 L 70,82 L 71,81 L 71,80 L 72,79 L 72,78 L 73,77 L 73,76 L 75,74 L 75,73 L 79,69 L 79,68 L 80,67 L 81,67 L 82,68 L 81,69 L 81,70 L 77,74 L 77,75 L 76,76 L 76,78 L 75,79 L 75,80 L 74,81 L 74,84 L 73,85 L 73,97 L 74,98 L 74,101 L 75,102 L 75,104 L 76,105 L 76,107 L 77,108 L 77,109 L 78,110 L 78,112 L 79,113 L 79,116 L 80,117 L 80,125 L 79,126 L 79,128 L 77,130 L 77,131 L 75,133 L 75,134 L 72,137 L 72,138 L 69,141 L 69,142 L 67,144 L 67,146 L 66,147 L 66,155 L 67,156 L 67,158 L 68,159 L 68,161 L 70,163 L 70,164 L 72,166 L 72,167 L 74,169 L 74,170 L 75,171 L 75,172 L 77,174 L 77,175 L 78,176 L 78,178 L 79,179 L 79,186 L 78,187 L 78,189 L 77,190 L 77,191 L 76,192 L 76,193 L 75,194 L 75,195 L 73,197 L 73,198 L 72,199 L 72,200 L 71,201 L 71,203 L 70,204 L 70,205 L 69,206 L 69,207 L 68,208 L 68,211 L 67,212 L 67,215 L 68,216 L 70,216 L 71,217 L 72,217 L 73,218 L 74,218 L 75,217 L 75,212 L 76,211 L 76,209 L 77,208 L 77,206 L 78,205 L 78,204 L 79,203 L 79,202 L 80,201 L 80,200 L 81,199 L 81,198 L 83,196 L 83,195 L 84,194 L 84,192 L 85,191 L 85,189 L 86,188 L 86,185 L 87,184 L 87,183 L 86,182 L 86,178 L 85,177 L 85,175 L 83,173 L 83,172 L 82,171 L 82,170 L 80,168 L 80,167 L 78,165 L 78,164 L 77,163 L 77,162 L 75,160 L 75,159 L 74,158 L 74,156 L 73,155 L 73,147 L 74,146 L 74,145 L 76,143 L 76,142 L 78,140 L 78,139 L 81,136 L 81,135 L 84,132 L 84,131 L 85,130 L 85,128 L 86,127 L 86,125 L 87,124 L 87,118 L 86,117 L 86,114 L 85,113 L 85,111 L 84,110 L 84,109 L 83,108 L 83,107 L 82,106 L 82,104 L 81,103 L 81,102 L 80,101 L 80,99 L 79,98 L 79,93 L 78,92 L 78,87 L 79,86 L 79,81 L 80,80 L 80,78 L 82,76 L 82,75 L 83,74 L 83,73 L 85,71 L 85,70 L 88,67 L 88,66 Z" fill="black" stroke="black" stroke-width="1" /><path d="M 107,61 L 106,62 L 103,62 L 102,63 L 100,63 L 98,65 L 97,65 L 92,70 L 92,71 L 91,72 L 91,75 L 92,75 L 93,74 L 102,74 L 103,75 L 104,75 L 108,79 L 108,81 L 109,82 L 109,85 L 108,86 L 108,87 L 107,88 L 106,87 L 101,87 L 100,88 L 96,88 L 95,87 L 91,87 L 90,88 L 90,96 L 91,97 L 91,100 L 92,101 L 92,102 L 93,103 L 93,105 L 94,106 L 94,107 L 96,109 L 96,110 L 102,116 L 103,116 L 105,118 L 107,118 L 108,119 L 116,119 L 117,118 L 119,118 L 121,116 L 122,116 L 128,110 L 128,109 L 130,107 L 130,106 L 131,105 L 131,103 L 132,102 L 132,101 L 133,100 L 133,97 L 134,96 L 134,88 L 133,87 L 130,87 L 129,88 L 124,88 L 123,87 L 120,87 L 119,88 L 119,89 L 117,91 L 116,90 L 116,88 L 115,87 L 115,82 L 116,81 L 116,79 L 120,75 L 121,75 L 122,74 L 131,74 L 132,75 L 133,75 L 133,72 L 132,71 L 132,70 L 127,65 L 126,65 L 124,63 L 122,63 L 121,62 L 118,62 L 117,61 Z" fill="black" stroke="black" stroke-width="1" /><path d="M 198,55 L 192,61 L 192,62 L 190,64 L 190,65 L 189,66 L 189,68 L 188,69 L 188,72 L 187,73 L 186,73 L 185,72 L 184,72 L 183,71 L 181,71 L 180,70 L 177,70 L 176,69 L 166,69 L 165,70 L 162,70 L 162,71 L 161,72 L 162,73 L 163,73 L 167,77 L 168,77 L 175,84 L 175,85 L 180,90 L 180,91 L 182,93 L 184,93 L 185,92 L 193,92 L 194,93 L 197,93 L 198,94 L 200,94 L 201,95 L 202,95 L 203,96 L 204,96 L 205,97 L 206,97 L 207,98 L 209,98 L 210,99 L 212,99 L 213,100 L 220,100 L 220,98 L 217,95 L 217,94 L 213,90 L 213,89 L 210,86 L 210,85 L 208,83 L 208,82 L 207,81 L 207,80 L 206,79 L 206,78 L 204,76 L 204,74 L 203,73 L 203,71 L 202,70 L 202,68 L 201,67 L 201,60 L 200,59 L 201,58 L 201,56 L 200,55 Z" fill="black" stroke="black" stroke-width="1" /><path d="M 24,55 L 23,56 L 23,67 L 22,68 L 22,70 L 21,71 L 21,73 L 20,74 L 20,76 L 18,78 L 18,79 L 17,80 L 17,81 L 16,82 L 16,83 L 14,85 L 14,86 L 11,89 L 11,90 L 7,94 L 7,95 L 4,98 L 5,98 L 7,96 L 7,95 L 11,91 L 11,90 L 14,87 L 14,86 L 16,84 L 16,83 L 17,82 L 17,81 L 18,80 L 18,79 L 19,78 L 19,77 L 20,76 L 20,74 L 21,73 L 21,71 L 22,70 L 22,68 L 23,67 L 23,56 L 24,55 L 25,55 L 32,62 L 32,63 L 34,65 L 34,66 L 35,67 L 35,68 L 36,69 L 36,72 L 37,73 L 39,73 L 40,72 L 41,72 L 42,71 L 43,71 L 44,70 L 47,70 L 48,69 L 58,69 L 59,70 L 63,70 L 59,70 L 58,69 L 48,69 L 47,70 L 44,70 L 43,71 L 42,71 L 41,72 L 39,72 L 38,73 L 37,73 L 36,72 L 36,69 L 35,68 L 35,67 L 34,66 L 34,64 L 32,62 L 32,61 L 26,55 Z" fill="black" stroke="black" stroke-width="1" /><path d="M 105,47 L 104,48 L 101,48 L 104,48 L 105,47 L 118,47 L 119,48 L 123,48 L 119,48 L 118,47 Z" fill="black" stroke="black" stroke-width="1" /><path d="M 111,39 L 110,40 L 109,40 L 106,43 L 105,43 L 102,46 L 101,46 L 103,46 L 106,43 L 107,43 L 110,40 L 111,40 L 112,39 L 113,40 L 114,40 L 117,43 L 118,43 L 121,46 L 123,46 L 122,46 L 119,43 L 118,43 L 115,40 L 114,40 L 113,39 Z" fill="black" stroke="black" stroke-width="1" /><path d="M 130,23 L 125,28 L 124,28 L 122,30 L 122,33 L 123,34 L 123,35 L 124,36 L 124,38 L 125,39 L 125,41 L 126,42 L 126,43 L 128,43 L 129,42 L 130,42 L 133,39 L 134,39 L 135,38 L 136,38 L 137,37 L 138,37 L 140,35 L 142,35 L 143,34 L 146,34 L 147,33 L 151,33 L 152,34 L 151,35 L 150,35 L 150,36 L 149,37 L 149,38 L 148,39 L 148,40 L 147,41 L 147,42 L 146,43 L 146,44 L 145,45 L 145,47 L 144,48 L 144,50 L 146,50 L 148,48 L 149,48 L 150,47 L 151,47 L 152,46 L 153,46 L 154,45 L 157,45 L 158,44 L 162,44 L 163,45 L 160,48 L 160,49 L 158,51 L 158,52 L 156,54 L 156,55 L 155,56 L 155,57 L 154,58 L 154,59 L 153,60 L 153,61 L 152,62 L 152,63 L 151,64 L 148,64 L 147,63 L 146,63 L 145,62 L 143,62 L 142,61 L 140,61 L 139,60 L 138,60 L 137,59 L 134,59 L 133,58 L 130,58 L 129,57 L 124,57 L 123,56 L 101,56 L 100,57 L 95,57 L 94,58 L 91,58 L 90,59 L 88,59 L 87,60 L 85,60 L 84,61 L 82,61 L 81,62 L 79,62 L 78,63 L 77,63 L 76,64 L 75,64 L 74,65 L 72,63 L 72,62 L 71,61 L 71,60 L 70,59 L 70,58 L 69,57 L 69,56 L 68,55 L 68,54 L 66,52 L 66,51 L 64,49 L 64,48 L 61,45 L 61,44 L 62,43 L 63,44 L 66,44 L 67,45 L 70,45 L 71,46 L 72,46 L 73,47 L 74,47 L 75,48 L 76,48 L 79,51 L 80,50 L 81,50 L 80,49 L 80,48 L 79,47 L 79,46 L 78,45 L 78,43 L 77,42 L 77,41 L 76,40 L 76,39 L 75,38 L 75,37 L 72,34 L 73,35 L 73,36 L 75,38 L 75,39 L 76,40 L 76,41 L 77,42 L 77,43 L 78,44 L 78,45 L 79,46 L 79,47 L 80,48 L 80,49 L 79,50 L 77,48 L 76,48 L 75,47 L 73,47 L 72,46 L 71,46 L 70,45 L 67,45 L 66,44 L 63,44 L 62,43 L 61,44 L 61,46 L 64,49 L 64,50 L 66,52 L 66,53 L 68,55 L 68,56 L 69,57 L 69,58 L 70,59 L 70,60 L 72,62 L 72,64 L 73,65 L 74,65 L 75,66 L 74,65 L 75,64 L 76,64 L 77,63 L 78,63 L 79,62 L 81,62 L 82,61 L 84,61 L 85,60 L 87,60 L 88,59 L 90,59 L 91,58 L 94,58 L 95,57 L 100,57 L 101,56 L 123,56 L 124,57 L 129,57 L 130,58 L 133,58 L 134,59 L 137,59 L 138,60 L 139,60 L 140,61 L 142,61 L 143,62 L 144,62 L 145,63 L 147,63 L 149,65 L 150,64 L 151,65 L 152,64 L 152,63 L 153,62 L 153,61 L 154,60 L 154,59 L 155,58 L 155,57 L 156,56 L 156,55 L 158,53 L 158,52 L 160,50 L 160,49 L 163,46 L 163,44 L 158,44 L 157,45 L 154,45 L 153,46 L 151,46 L 150,47 L 149,47 L 148,48 L 147,48 L 145,50 L 144,49 L 144,48 L 145,47 L 145,46 L 146,45 L 146,43 L 148,41 L 148,40 L 149,39 L 149,38 L 150,37 L 150,36 L 152,34 L 151,33 L 147,33 L 146,34 L 143,34 L 142,35 L 140,35 L 139,36 L 138,36 L 137,37 L 136,37 L 135,38 L 134,38 L 133,39 L 132,39 L 129,42 L 128,42 L 127,43 L 125,41 L 125,39 L 124,38 L 124,36 L 123,35 L 123,34 L 122,33 L 122,31 L 125,28 L 126,28 L 127,27 L 128,28 L 127,27 L 131,23 L 132,23 Z" fill="black" stroke="black" stroke-width="1" /><path d="M 111,7 L 111,9 L 110,10 L 110,11 L 109,12 L 109,14 L 108,15 L 108,16 L 107,17 L 107,18 L 105,20 L 101,20 L 100,21 L 92,21 L 92,22 L 99,29 L 100,29 L 102,31 L 102,32 L 101,33 L 101,35 L 100,36 L 100,38 L 99,39 L 99,40 L 98,41 L 98,42 L 97,43 L 96,42 L 95,42 L 92,39 L 91,39 L 89,37 L 87,37 L 86,36 L 85,36 L 84,35 L 82,35 L 81,34 L 78,34 L 77,33 L 74,33 L 77,33 L 78,34 L 81,34 L 82,35 L 84,35 L 85,36 L 86,36 L 87,37 L 88,37 L 90,39 L 91,39 L 94,42 L 95,42 L 96,43 L 98,43 L 98,41 L 99,40 L 99,39 L 100,38 L 100,36 L 101,35 L 101,33 L 102,32 L 102,30 L 101,29 L 100,29 L 94,23 L 93,23 L 92,22 L 93,21 L 100,21 L 101,20 L 106,20 L 107,19 L 107,17 L 108,16 L 108,15 L 109,14 L 109,12 L 111,10 L 111,8 L 112,7 L 113,8 L 113,9 L 114,10 L 114,11 L 115,12 L 115,14 L 116,15 L 116,16 L 117,17 L 117,18 L 118,19 L 118,20 L 123,20 L 124,21 L 132,21 L 124,21 L 123,20 L 119,20 L 117,18 L 117,17 L 116,16 L 116,15 L 115,14 L 115,12 L 114,11 L 114,10 L 113,9 L 113,7 Z" fill="black" stroke="black" stroke-width="1" /><path d="M 115,0 L 127,0 L 128,1 L 133,1 L 134,2 L 138,2 L 139,3 L 141,3 L 142,4 L 145,4 L 146,5 L 148,5 L 149,6 L 151,6 L 152,7 L 153,7 L 154,8 L 155,8 L 156,9 L 158,9 L 159,10 L 160,10 L 161,11 L 162,11 L 164,13 L 166,13 L 168,15 L 169,15 L 171,17 L 170,18 L 171,17 L 172,17 L 173,18 L 174,18 L 177,21 L 178,21 L 181,24 L 182,24 L 187,29 L 186,30 L 187,29 L 188,29 L 194,35 L 194,36 L 200,42 L 200,43 L 199,44 L 200,43 L 203,46 L 203,47 L 206,50 L 206,51 L 208,53 L 208,54 L 209,55 L 209,56 L 210,57 L 210,58 L 211,59 L 211,60 L 213,62 L 213,63 L 214,64 L 214,65 L 215,66 L 215,67 L 216,68 L 216,70 L 217,71 L 217,72 L 218,73 L 218,75 L 219,76 L 219,78 L 220,79 L 220,82 L 221,83 L 221,86 L 222,87 L 222,90 L 223,91 L 223,96 L 224,97 L 224,106 L 224,97 L 223,96 L 223,91 L 222,90 L 222,87 L 221,86 L 221,83 L 220,82 L 220,79 L 219,78 L 219,76 L 218,75 L 218,73 L 217,72 L 217,71 L 216,70 L 216,68 L 215,67 L 215,66 L 214,65 L 214,64 L 213,63 L 213,61 L 211,59 L 211,58 L 210,57 L 210,56 L 209,55 L 209,54 L 208,53 L 208,52 L 206,50 L 206,49 L 203,46 L 203,45 L 200,42 L 200,41 L 194,35 L 194,34 L 189,29 L 188,29 L 183,24 L 182,24 L 179,21 L 178,21 L 175,18 L 174,18 L 173,17 L 172,17 L 170,15 L 169,15 L 168,14 L 167,14 L 166,13 L 165,13 L 163,11 L 162,11 L 161,10 L 159,10 L 158,9 L 157,9 L 156,8 L 154,8 L 153,7 L 152,7 L 151,6 L 149,6 L 148,5 L 146,5 L 145,4 L 142,4 L 141,3 L 139,3 L 138,2 L 134,2 L 133,1 L 128,1 L 127,0 Z" fill="black" stroke="black" stroke-width="1" /><path d="M 97,0 L 96,1 L 92,1 L 91,2 L 87,2 L 86,3 L 83,3 L 82,4 L 79,4 L 78,5 L 76,5 L 75,6 L 73,6 L 72,7 L 71,7 L 70,8 L 68,8 L 67,9 L 66,9 L 65,10 L 64,10 L 63,11 L 61,11 L 60,12 L 59,12 L 57,14 L 56,14 L 55,15 L 54,15 L 52,17 L 51,17 L 50,18 L 49,18 L 46,21 L 45,21 L 42,24 L 41,24 L 34,31 L 33,31 L 30,34 L 30,35 L 24,41 L 24,42 L 21,45 L 21,46 L 18,49 L 18,50 L 16,52 L 16,53 L 15,54 L 15,55 L 14,56 L 14,57 L 12,59 L 12,60 L 11,61 L 11,62 L 10,63 L 10,65 L 9,66 L 9,67 L 8,68 L 8,70 L 7,71 L 7,72 L 6,73 L 6,75 L 5,76 L 5,78 L 4,79 L 4,82 L 3,83 L 3,86 L 2,87 L 2,90 L 1,91 L 1,96 L 0,97 L 0,106 L 0,97 L 1,96 L 1,91 L 2,90 L 2,87 L 3,86 L 3,83 L 4,82 L 4,79 L 5,78 L 5,76 L 6,75 L 6,73 L 7,72 L 7,71 L 8,70 L 8,68 L 10,66 L 10,64 L 11,63 L 11,62 L 12,61 L 12,60 L 14,58 L 14,57 L 15,56 L 15,55 L 16,54 L 16,53 L 18,51 L 18,50 L 21,47 L 21,46 L 24,43 L 24,42 L 30,36 L 30,35 L 34,31 L 35,31 L 42,24 L 43,24 L 46,21 L 47,21 L 50,18 L 51,18 L 52,17 L 53,17 L 55,15 L 56,15 L 57,14 L 58,14 L 60,12 L 61,12 L 62,11 L 63,11 L 64,10 L 66,10 L 68,8 L 70,8 L 71,7 L 72,7 L 73,6 L 75,6 L 76,5 L 78,5 L 79,4 L 82,4 L 83,3 L 86,3 L 87,2 L 91,2 L 92,1 L 96,1 L 97,0 L 109,0 Z" fill="black" stroke="black" stroke-width="1" /></svg>